<svg width="26" height="26" viewBox="0 0 26 26" fill="none" xmlns="http://www.w3.org/2000/svg">
<path d="M15.7918 5.20012C14.4544 5.20012 13.1968 5.72085 12.251 6.66683C11.8355 7.08229 11.5003 7.56033 11.2538 8.08773C11.0157 8.59751 10.8664 9.14102 10.8099 9.70317C10.6999 10.7958 10.9536 11.9021 11.5254 12.8308L4.19815 20.1578C4.14733 20.2086 4.14733 20.2914 4.19815 20.342L5.65789 21.8018C5.70872 21.8527 5.79127 21.8527 5.84209 21.8018L7.20987 20.4342L8.57751 21.8016C8.62821 21.8524 8.71063 21.8524 8.76145 21.8016L10.2209 20.3421C10.2717 20.2913 10.2717 20.2087 10.2209 20.1579L8.85354 18.7905L10.1291 17.515L11.4967 18.8824C11.5474 18.9332 11.6301 18.9332 11.6807 18.8824L13.1402 17.4229C13.191 17.3724 13.191 17.2895 13.1402 17.2387L11.7729 15.8713L13.1691 14.475C14.0979 15.0464 15.2042 15.3003 16.2967 15.1905C16.8587 15.1338 17.4023 14.9844 17.9122 14.7467C18.4396 14.5001 18.9177 14.165 19.3331 13.7495C20.279 12.8033 20.7998 11.5459 20.8002 10.208C20.8002 8.87032 20.2791 7.6127 19.3331 6.66692C18.3871 5.72082 17.1297 5.19995 15.7919 5.19995L15.7918 5.20012ZM17.676 12.0918C16.6373 13.1311 14.9466 13.1311 13.9077 12.0918C12.8689 11.053 12.8689 9.36263 13.9081 8.32386C14.947 7.285 16.6374 7.285 17.676 8.32386C18.7152 9.36272 18.7152 11.0529 17.676 12.0918H17.676Z" fill="#212121"/>
</svg>
