<svg width="127" height="19" fill="none"
  xmlns="http://www.w3.org/2000/svg">
  <path d="M7.421 18.234c-1.945 0-3.52-.578-4.723-1.734C1.495 15.336.894 13.824.894 11.965v-.328c0-1.297.238-2.442.715-3.434.484-.992 1.187-1.758 2.109-2.297.922-.547 2.016-.82 3.281-.82 1.781 0 3.188.555 4.219 1.664 1.031 1.102 1.547 2.64 1.547 4.617v1.535H4.913c.14.711.45 1.27.926 1.676.477.406 1.094.61 1.852.61 1.25 0 2.226-.438 2.93-1.313l1.804 2.133c-.492.68-1.191 1.223-2.098 1.629a7.086 7.086 0 01-2.906.597zM6.976 8.133c-1.156 0-1.844.765-2.063 2.297h3.985v-.305c.015-.633-.145-1.121-.48-1.465-.337-.351-.817-.527-1.442-.527z" fill="#FF2600"/>
  <path d="M22.921 12.176h-7.043V9.117h7.043v3.059zM31.015 18h-3.96V5.32h3.96V18zM26.82 2.05c0-.562.203-1.023.61-1.382.405-.36.933-.54 1.581-.54.649 0 1.176.18 1.582.54.407.36.61.82.61 1.383 0 .562-.203 1.023-.61 1.383-.406.359-.933.539-1.582.539-.648 0-1.175-.18-1.582-.54-.406-.359-.61-.82-.61-1.382zM38.465 18h-3.961V0h3.96v18zM49.3 16.629c-.836 1.07-1.965 1.605-3.387 1.605-1.39 0-2.445-.402-3.164-1.207-.711-.812-1.067-1.976-1.067-3.492V5.32h3.95v8.239c0 1.086.527 1.629 1.582 1.629.906 0 1.55-.325 1.933-.973V5.32h3.973V18h-3.703l-.117-1.371zm13.472-2.192c0-.335-.175-.605-.527-.808-.352-.203-1.02-.414-2.004-.633-.984-.219-1.797-.504-2.437-.855-.64-.36-1.13-.793-1.465-1.301-.336-.508-.504-1.09-.504-1.746 0-1.164.48-2.121 1.441-2.871.961-.758 2.22-1.137 3.774-1.137 1.672 0 3.015.379 4.031 1.137 1.016.757 1.524 1.754 1.524 2.988h-3.961c0-1.016-.536-1.524-1.606-1.524-.414 0-.762.118-1.043.352a1.054 1.054 0 00-.422.856c0 .351.172.636.516.855.344.219.89.398 1.64.54.758.14 1.422.308 1.993.503 1.906.656 2.859 1.832 2.859 3.527 0 1.157-.516 2.098-1.547 2.825-1.023.726-2.351 1.09-3.984 1.09-1.086 0-2.055-.196-2.907-.587-.851-.39-1.515-.921-1.992-1.593-.476-.672-.715-1.38-.715-2.121h3.692c.016.586.21 1.015.586 1.289.375.265.855.398 1.441.398.54 0 .942-.11 1.207-.328.274-.219.41-.504.41-.855zM73.88 2.168V5.32h2.086v2.742h-2.086v5.801c0 .477.086.809.258.996.172.188.512.282 1.02.282.39 0 .718-.024.984-.07v2.824a7.288 7.288 0 01-2.227.34c-1.36 0-2.363-.32-3.011-.962-.649-.64-.973-1.613-.973-2.918V8.063h-1.617V5.32h1.617V2.168h3.95zm12.16 6.727l-1.3-.094c-1.243 0-2.04.39-2.391 1.172V18h-3.95V5.32h3.704l.129 1.63c.664-1.243 1.59-1.864 2.777-1.864.422 0 .79.047 1.102.14l-.07 3.669zM95.094 18c-.14-.258-.265-.637-.375-1.137-.726.914-1.742 1.371-3.047 1.371-1.195 0-2.21-.359-3.046-1.078-.837-.726-1.254-1.636-1.254-2.73 0-1.375.507-2.414 1.523-3.117 1.016-.704 2.492-1.055 4.43-1.055h1.218v-.668c0-1.164-.504-1.746-1.511-1.746-.938 0-1.406.46-1.406 1.383h-3.95c0-1.227.52-2.223 1.559-2.989 1.047-.765 2.379-1.148 3.996-1.148s2.895.394 3.832 1.184c.938.789 1.418 1.87 1.441 3.246v5.613c.016 1.164.196 2.055.54 2.672V18h-3.95zm-2.472-2.578c.492 0 .898-.106 1.218-.317.328-.21.563-.449.703-.714v-2.028h-1.148c-1.375 0-2.063.617-2.063 1.852 0 .36.122.652.364.879.242.219.55.328.926.328zm14.281-.235c.555 0 .984-.148 1.289-.445.305-.305.453-.726.445-1.265h3.703c0 1.39-.5 2.53-1.5 3.421-.992.891-2.273 1.336-3.843 1.336-1.844 0-3.297-.578-4.36-1.734-1.062-1.156-1.593-2.758-1.593-4.805v-.164c0-1.281.234-2.41.703-3.386.476-.985 1.16-1.739 2.051-2.262.89-.531 1.945-.797 3.164-.797 1.648 0 2.957.457 3.925 1.371.969.914 1.453 2.152 1.453 3.715h-3.703c0-.656-.16-1.16-.48-1.512-.32-.351-.75-.527-1.289-.527-1.024 0-1.621.652-1.793 1.957-.055.414-.082.984-.082 1.71 0 1.274.152 2.157.457 2.65.305.491.789.738 1.453.738zm14.082 3.047c-1.945 0-3.519-.578-4.723-1.734-1.203-1.164-1.804-2.676-1.804-4.535v-.328c0-1.297.238-2.442.715-3.434.484-.992 1.187-1.758 2.109-2.297.922-.547 2.016-.82 3.281-.82 1.782 0 3.188.555 4.219 1.664 1.031 1.102 1.547 2.64 1.547 4.617v1.535h-7.852c.141.711.45 1.27.926 1.676.477.406 1.094.61 1.852.61 1.25 0 2.226-.438 2.929-1.313l1.805 2.133c-.492.68-1.191 1.223-2.098 1.629a7.084 7.084 0 01-2.906.597zm-.445-10.101c-1.156 0-1.844.765-2.063 2.297h3.985v-.305c.015-.633-.145-1.121-.481-1.465-.336-.351-.816-.527-1.441-.527z" fill="currentColor"/>
</svg>