<svg width="130" height="130" viewBox="0 0 130 130" fill="none" xmlns="http://www.w3.org/2000/svg">
<rect width="130" height="130" rx="10" fill="#E1E1E1"/>
<g clip-path="url(#clip0_97_2172)">
<path d="M77.6636 97.2957C77.595 96.5432 77.5448 95.3343 77.5052 94.0809C88.976 92.914 97.0227 90.1816 97.0227 86.9983C96.991 86.993 96.9937 86.8672 96.9937 86.8147C88.419 79.1395 104.428 24.5946 74.625 25.7012C72.7532 24.1279 69.477 22.7302 64.7778 22.7302C24.4095 25.7641 42.2586 77.2724 33.0608 86.9957C33.0555 86.9983 33.0476 86.9983 33.0423 86.9983C33.0423 87.0035 33.0449 87.0088 33.0449 87.014C33.0449 87.0166 33.0423 87.0192 33.0423 87.0192C33.0423 87.0192 33.0449 87.0193 33.0476 87.0219C33.0845 90.1397 40.8594 92.8222 51.9975 94.018C51.9658 94.7784 51.8998 95.7198 51.7546 97.2957C47.1293 109.646 15.9219 106.18 14.4805 130H114.8C113.362 106.18 82.2889 109.646 77.6636 97.2957Z" fill="white"/>
</g>
<defs>
<clipPath id="clip0_97_2172">
<rect width="130" height="118" fill="white" transform="translate(0 12)"/>
</clipPath>
</defs>
</svg>
