<svg width="130" height="130" viewBox="0 0 130 130" fill="none" xmlns="http://www.w3.org/2000/svg">
<rect width="130" height="130" rx="10" fill="#E1E1E1"/>
<g clip-path="url(#clip0_97_2203)">
<path d="M80.6636 96.7412C80.2781 92.4426 80.426 89.4426 80.426 85.5146C82.3532 84.4932 85.8063 77.9812 86.3897 72.4799C87.9051 72.3546 90.2943 70.8612 90.9939 64.9652C91.3714 61.7999 89.8719 60.0186 88.9585 59.4586C91.4242 51.9679 96.5458 28.7946 79.4861 26.3999C77.7305 23.2852 73.2346 21.7092 67.3923 21.7092C44.0177 22.1439 41.1982 39.5386 46.3225 59.4586C45.4117 60.0186 43.9121 61.7999 44.287 64.9652C44.9893 70.8612 47.3758 72.3546 48.8912 72.4799C49.472 77.9786 53.0624 84.4932 54.9949 85.5146C54.9949 89.4426 55.1401 92.4426 54.7546 96.7412C50.1293 109.301 18.9219 105.776 17.4805 130H117.8C116.362 105.776 85.2889 109.301 80.6636 96.7412Z" fill="white"/>
</g>
<defs>
<clipPath id="clip0_97_2203">
<rect width="130" height="120" fill="white" transform="translate(0 10)"/>
</clipPath>
</defs>
</svg>
