<svg width="24" height="24" viewBox="0 0 24 24" fill="none"
  xmlns="http://www.w3.org/2000/svg">
  <path d="M12 2C6.48 2 2 6.48 2 12C2 17.52 6.48 22 12 22C17.52 22 22 17.52 22 12C22 6.48 17.52 2 12 2ZM7 16C6.17 16 5.5 15.33 5.5 14.5C5.5 13.67 6.17 13 7 13C7.83 13 8.5 13.67 8.5 14.5C8.5 15.33 7.83 16 7 16ZM12 10C11.17 10 10.5 9.33 10.5 8.5C10.5 7.67 11.17 7 12 7C12.83 7 13.5 7.67 13.5 8.5C13.5 9.33 12.83 10 12 10ZM17 16C16.17 16 15.5 15.33 15.5 14.5C15.5 13.67 16.17 13 17 13C17.83 13 18.5 13.67 18.5 14.5C18.5 15.33 17.83 16 17 16Z" fill="currentColor"/>
</svg>
